<svg width="25" height="20" viewBox="0 0 25 20" fill="none" xmlns="http://www.w3.org/2000/svg">
<path d="M0.833311 4.16699H24.1665C24.1656 3.01392 24.151 2.40951 23.9123 1.94101C23.6886 1.50197 23.3316 1.14501 22.8926 0.92131C22.3934 0.666992 21.74 0.666992 20.4333 0.666992H4.56659C3.2598 0.666992 2.6064 0.666992 2.10727 0.92131C1.66823 1.14501 1.31127 1.50197 1.08757 1.94101C0.84886 2.40951 0.83421 3.01392 0.833311 4.16699Z" fill="#437EF7"/>
<path fill-rule="evenodd" clip-rule="evenodd" d="M24.1666 6.50033H0.833252V15.6003C0.833252 16.9071 0.833252 17.5605 1.08757 18.0596C1.31127 18.4987 1.66823 18.8556 2.10727 19.0793C2.6064 19.3337 3.2598 19.3337 4.56659 19.3337H20.4333C21.74 19.3337 22.3934 19.3337 22.8926 19.0793C23.3316 18.8556 23.6886 18.4987 23.9123 18.0596C24.1666 17.5605 24.1666 16.9071 24.1666 15.6003V6.50033ZM4.33325 14.667C4.33325 14.0227 4.85559 13.5003 5.49992 13.5003H10.1666C10.8109 13.5003 11.3333 14.0227 11.3333 14.667C11.3333 15.3113 10.8109 15.8337 10.1666 15.8337H5.49992C4.85559 15.8337 4.33325 15.3113 4.33325 14.667ZM14.8333 13.5003C14.1889 13.5003 13.6666 14.0227 13.6666 14.667C13.6666 15.3113 14.1889 15.8337 14.8333 15.8337H19.4999C20.1442 15.8337 20.6666 15.3113 20.6666 14.667C20.6666 14.0227 20.1442 13.5003 19.4999 13.5003H14.8333Z" fill="#437EF7"/>
</svg>
