<svg width="20" height="21" viewBox="0 0 20 21" fill="none" xmlns="http://www.w3.org/2000/svg">
<path d="M-0.00012207 1.93266C-0.00012207 1.14187 0.661909 0.5 1.478 0.5H18.5218C19.3382 0.5 19.9999 1.14187 19.9999 1.93266V19.0676C19.9999 19.8586 19.3382 20.5 18.5218 20.5H1.478C0.661987 20.5 -0.00012207 19.8587 -0.00012207 19.0678V1.93242V1.93266Z" fill="#272D37"/>
<path d="M6.07767 17.2376V8.23353H3.08485V17.2376H6.07798H6.07767ZM4.58188 7.00439C5.62532 7.00439 6.27493 6.31299 6.27493 5.44893C6.2554 4.56518 5.62532 3.89307 4.60173 3.89307C3.57743 3.89307 2.90845 4.56518 2.90845 5.44885C2.90845 6.31291 3.55782 7.00432 4.56228 7.00432H4.58165L4.58188 7.00439ZM7.73423 17.2376H10.7268V12.2099C10.7268 11.9411 10.7463 11.6717 10.8254 11.4797C11.0416 10.9418 11.5341 10.385 12.361 10.385C13.4437 10.385 13.877 11.2106 13.877 12.4212V17.2376H16.8695V12.0749C16.8695 9.30939 15.3933 8.02244 13.4243 8.02244C11.81 8.02244 11.101 8.92471 10.7071 9.53924H10.727V8.23385H7.73438C7.77345 9.07854 7.73415 17.2379 7.73415 17.2379L7.73423 17.2376Z" fill="white"/>
</svg>
