<svg width="25" height="25" viewBox="0 0 25 25" fill="none" xmlns="http://www.w3.org/2000/svg">
<path d="M14.4426 1.99132L16.3694 6.05802C16.6853 6.72375 17.295 7.18515 18.0006 7.29202L22.3097 7.94423C24.0863 8.21305 24.7957 10.4867 23.51 11.7919L20.391 14.9569C19.8806 15.4752 19.6476 16.222 19.7681 16.9538L20.5041 21.4234C20.8079 23.2663 18.9504 24.6713 17.3618 23.8015L13.5076 21.6924C12.8766 21.3467 12.1226 21.3467 11.4915 21.6924L7.63723 23.8029C6.04867 24.6727 4.19114 23.2661 4.49495 21.4248L5.23096 16.9552C5.35198 16.2229 5.11885 15.4756 4.60807 14.9569L1.48983 11.7915C0.204088 10.4863 0.91358 8.21269 2.69016 7.94387L6.99927 7.29166C7.70484 7.18478 8.3146 6.72334 8.63041 6.05766L10.5564 1.99138C11.3519 0.314109 13.6472 0.314052 14.4426 1.99132Z" fill="#FFAE43"/>
</svg>
