<svg width="24" height="26" viewBox="0 0 24 26" fill="none" xmlns="http://www.w3.org/2000/svg">
<path d="M15.8978 7.45073L13.1479 2.6638C12.6373 1.77499 11.3565 1.77073 10.8401 2.65613L7.93827 7.63063C7.55392 8.28951 6.90581 8.75226 6.15783 8.90186L2.19288 9.69485C1.16597 9.90023 0.765821 11.155 1.48425 11.917L4.35202 14.9585C4.96525 15.6089 5.21181 16.5233 5.00869 17.3939L3.71064 22.9569C3.44381 24.1005 4.67861 25.0056 5.68884 24.4069L10.6411 21.4722C11.4794 20.9755 12.5218 20.9755 13.3601 21.4722L18.3124 24.4069C19.3226 25.0056 20.5574 24.1005 20.2906 22.9569L18.9811 17.3451C18.7843 16.5016 19.0095 15.615 19.585 14.9676L22.4563 11.7373C23.1404 10.9677 22.731 9.74604 21.7212 9.54409L17.6871 8.73728C16.9331 8.58647 16.2809 8.11751 15.8978 7.45073Z" stroke="#437EF7" stroke-width="2" stroke-miterlimit="10"/>
</svg>
