<svg width="20" height="21" viewBox="0 0 20 21" fill="none" xmlns="http://www.w3.org/2000/svg">
<path d="M10 20.5C15.5228 20.5 20 16.0228 20 10.5C20 4.97715 15.5228 0.5 10 0.5C4.47715 0.5 0 4.97715 0 10.5C0 16.0228 4.47715 20.5 10 20.5Z" fill="#272D37"/>
<path fill-rule="evenodd" clip-rule="evenodd" d="M4.52672 10.3945C7.44192 9.12435 9.38585 8.28702 10.3585 7.88246C13.1356 6.72737 13.7127 6.52672 14.0888 6.52009C14.1715 6.51863 14.3565 6.53913 14.4763 6.63635C14.5774 6.71844 14.6053 6.82934 14.6186 6.90717C14.6319 6.985 14.6485 7.1623 14.6353 7.30083C14.4848 8.88207 13.8337 12.7193 13.5024 14.4903C13.3622 15.2397 13.0862 15.491 12.819 15.5155C12.2382 15.569 11.7973 15.1318 11.2348 14.7631C10.3547 14.1861 9.85747 13.827 9.00315 13.264C8.01584 12.6134 8.65587 12.2558 9.21854 11.6714C9.36579 11.5184 11.9245 9.19115 11.974 8.98002C11.9802 8.95362 11.9859 8.8552 11.9274 8.80323C11.869 8.75125 11.7827 8.76903 11.7204 8.78316C11.6321 8.8032 10.2261 9.73252 7.50234 11.5711C7.10325 11.8452 6.74176 11.9787 6.41788 11.9717C6.06083 11.964 5.37401 11.7698 4.86342 11.6039C4.23717 11.4003 3.73944 11.2927 3.78278 10.9469C3.80536 10.7669 4.05334 10.5827 4.52672 10.3945Z" fill="white"/>
</svg>
