<svg width="20" height="17" viewBox="0 0 20 17" fill="none" xmlns="http://www.w3.org/2000/svg">
<path d="M6.2896 16.6256C13.8368 16.6256 17.9648 10.3728 17.9648 4.95035C17.9648 4.77275 17.9648 4.59595 17.9528 4.41995C18.7559 3.83908 19.4491 3.11986 20 2.29595C19.2512 2.62795 18.4567 2.84558 17.6432 2.94155C18.4998 2.42879 19.141 1.6222 19.4472 0.671952C18.6417 1.14996 17.7605 1.48681 16.8416 1.66795C16.2229 1.0101 15.4047 0.574486 14.5135 0.428522C13.6223 0.282558 12.7078 0.434381 11.9116 0.860496C11.1154 1.28661 10.4819 1.96326 10.109 2.78574C9.73605 3.60822 9.64462 4.53067 9.8488 5.41035C8.21741 5.32852 6.62146 4.90455 5.16455 4.16596C3.70763 3.42737 2.4223 2.39067 1.392 1.12315C0.867274 2.02648 0.70656 3.09584 0.942583 4.1135C1.17861 5.13117 1.79362 6.02061 2.6624 6.60075C2.00936 6.58162 1.37054 6.40545 0.8 6.08715V6.13915C0.800259 7.08653 1.12821 8.00465 1.72823 8.73779C2.32824 9.47093 3.16338 9.97396 4.092 10.1616C3.4879 10.3263 2.85406 10.3504 2.2392 10.232C2.50151 11.0472 3.01202 11.7602 3.69937 12.2711C4.38671 12.782 5.21652 13.0654 6.0728 13.0816C5.22203 13.7503 4.24776 14.2447 3.20573 14.5366C2.16369 14.8284 1.07435 14.9119 0 14.7824C1.87653 15.9865 4.05994 16.6253 6.2896 16.6224" fill="#272D37"/>
</svg>
