<svg width="32" height="32" viewBox="0 0 32 32" fill="none" xmlns="http://www.w3.org/2000/svg">
<path d="M15.9999 30.6668C24.1001 30.6668 30.6666 24.1003 30.6666 16.0002C30.6666 7.89999 24.1001 1.3335 15.9999 1.3335M15.9999 30.6668C7.89974 30.6668 1.33325 24.1003 1.33325 16.0002C1.33325 7.89999 7.89974 1.3335 15.9999 1.3335M15.9999 30.6668C18.9454 30.6668 21.3333 24.1003 21.3333 16.0002C21.3333 7.89999 18.9454 1.3335 15.9999 1.3335M15.9999 30.6668C13.0544 30.6668 10.6666 24.1003 10.6666 16.0002C10.6666 7.89999 13.0544 1.3335 15.9999 1.3335M2.66659 10.6668H29.3333M2.66659 20.0002H29.3333" stroke="#437EF7" stroke-width="2" stroke-linecap="round"/>
</svg>
